<?xml version="1.0" encoding="UTF-8"?>
<svg id="Layer_1" xmlns="http://www.w3.org/2000/svg" version="1.1" viewBox="0 0 105.3 150.4">
  <!-- Generator: Adobe Illustrator 29.3.1, SVG Export Plug-In . SVG Version: 2.1.0 Build 151)  -->
  <path fill ="currentColor" d="M96.5,44.8c7.8,7.5,8.2,18.1,3.3,27.4,3.3.5,6,2.9,5.4,6.5l-16.2,71.7-72.9-.2L0,77.9c-.6-4.1,3.8-4.7,6.1-6.8-9.8-11.5-.6-24,12.3-26.5-1.8-5.9.1-11,5-14.5s10.6-3,15.5-6C47.5,18.7,48.5,9.3,48.4,0c.6-.8,11.7,9.6,12.7,10.7,1.7,2,6,10,6.5,10.4,1.1.7,3.1.4,4.5.9,6,2.3,10.6,5.5,12.8,11.7s0,3.8,1.1,5,7.7,3.3,10.5,6ZM50.7,42.3c10.2-4.3,15.9-13.8,10.1-24.3s-7.1-9.7-8.6-8.7c-1.5,9.1-5.1,16.6-14.1,20.1s-18.7,3.5-15.7,13.1,4,2.2,4.1,4.4c-1.3,2-12.9,1.4-17.6,7.7-3.2,4.3-3.2,13.4,1.9,15.7,3.8,1.7,19-1,24.1-1.2,11.5-.4,23.1.4,34.6,0l22.9,2.1c13-7.2,4.5-24.3-6.9-28.1l-6.1,9.1c-8.1,7.1-20.7,8.9-29.5,1.9,2.6-.4,4.8,1.5,7.4,1.9,8.8,1.1,19.5-3.8,23-12.2,3.7-9-3.3-17.6-12.6-17.6-1.2,7.5-5.4,12.6-12.4,15.6s-4.5,2.1-4.6.4ZM99.8,76.8c-.3-.3-6.2-1.3-7.4-1.4-21.7-3.2-57.9-2.9-79.7,0s-7.4.9-7.3,1.9c7.1,5.4,18.7,7.8,27.3,5s6.8-4.9,9.1-4.7,6,6.1,11.6,6c5.2,0,7.4-5.7,10-6s3.5,1.8,5.7,2.8c9.2,4.1,21.2,3.8,29.8-1.8.6-.4,2.1-.5,1-1.7ZM42.1,82.3c-2-1.2-7.1,6-10.6,4.5l6.2,58.3c2.4,0,15.6,1.5,16.2-.5v-57.1c-4,.4-9.8-1.7-11.7-5.2ZM28.3,87.6c-7.7.2-15.5-.8-22.2-4.7l13.2,61.7c.2,1,.9,1.1,1.8,1.3,1.7.3,13.5,0,14.2-.8l-7-57.5ZM75.2,86.8l-11-3.7-7.3,5-.6,57.1.9.6c2.4-.2,10.9,1.2,11.7-1.2l6.2-57.8ZM72.2,145.9h11.9l14.6-62.2c-6.5,2.8-13.1,4.4-20.3,3.8l-6.1,58.4Z"/>
</svg>