<?xml version="1.0" encoding="UTF-8" standalone="no"?>
<svg
   id="Layer_1"
   version="1.1"
   viewBox="0 0 105.3 150.4"
   xmlns="http://www.w3.org/2000/svg"
   xmlns:svg="http://www.w3.org/2000/svg">
  <defs
     id="defs126" />
  <!-- Generator: Adobe Illustrator 29.3.1, SVG Export Plug-In . SVG Version: 2.1.0 Build 151)  -->
  <path fill="currentColor" 
     d="m 96.5,44.8 c 7.8,7.5 8.2,18.1 3.3,27.4 3.3,0.5 6,2.9 5.4,6.5 L 89,150.4 16.1,150.2 0,77.9 c -0.6,-4.1 3.8,-4.7 6.1,-6.8 -9.8,-11.5 -0.6,-24 12.3,-26.5 -1.8,-5.9 0.1,-11 5,-14.5 4.9,-3.5 10.6,-3 15.5,-6 8.6,-5.4 9.6,-14.8 9.5,-24.1 0.6,-0.8 11.7,9.6 12.7,10.7 1.7,2 6,10 6.5,10.4 1.1,0.7 3.1,0.4 4.5,0.9 6,2.3 10.6,5.5 12.8,11.7 2.2,6.2 0,3.8 1.1,5 1.1,1.2 7.7,3.3 10.5,6 z M 50.7,42.3 C 60.9,38 66.6,28.5 60.8,18 55,7.5 53.7,8.3 52.2,9.3 c -1.5,9.1 -5.1,16.6 -14.1,20.1 -9,3.5 -18.7,3.5 -15.7,13.1 8.32217,11.668459 -5.647971,2.488542 -13.5,12.1 -3.2,4.3 -3.2,13.4 1.9,15.7 3.8,1.7 19,-1 24.1,-1.2 11.5,-0.4 23.1,0.4 34.6,0 l 22.9,2.1 c 13,-7.2 4.5,-24.3 -6.9,-28.1 l -6.1,9.1 c -8.1,7.1 -20.7,8.9 -29.5,1.9 2.6,-0.4 4.8,1.5 7.4,1.9 8.8,1.1 19.5,-3.8 23,-12.2 3.7,-9 -3.3,-17.6 -12.6,-17.6 -1.2,7.5 -5.4,12.6 -12.4,15.6 -7,3 -4.5,2.1 -4.6,0.4 z m 49.1,34.5 c -0.3,-0.3 -6.2,-1.3 -7.4,-1.4 -21.7,-3.2 -57.9,-2.9 -79.7,0 -21.8,2.9 -7.4,-0.125122 -7.3,0.874878 7.1,5.4 18.7,8.825122 27.3,6.025122 8.6,-2.8 6.8,-4.9 9.1,-4.7 2.3,0.2 6,6.1 11.6,6 5.2,0 7.4,-5.7 10,-6 2.6,-0.3 3.5,1.8 5.7,2.8 9.2,4.1 21.2,3.8 29.8,-1.8 0.6,-0.4 2.1,-0.5 1,-1.7 z m -57.7,5.5 c -2,-1.2 -7.1,6 -10.6,4.5 l 6.2,58.3 c 2.4,0 15.6,1.5 16.2,-0.5 V 87.5 c -4,0.4 -9.8,-1.7 -11.7,-5.2 z M 28.3,87.6 C 20.6,87.8 12.8,86.8 6.1,82.9 l 13.2,61.7 c 0.2,1 0.9,1.1 1.8,1.3 1.7,0.3 13.5,0 14.2,-0.8 z m 46.9,-0.8 -11,-3.7 -7.3,5 -0.6,57.1 0.9,0.6 c 2.4,-0.2 10.9,1.2 11.7,-1.2 l 6.2,-57.8 z m -3,59.1 H 84.1 L 98.7,83.7 c -6.5,2.8 -13.1,4.4 -20.3,3.8 l -6.1,58.4 z"
     id="path121" />
</svg>
